HIERARCHY
ROOT Hips
{
    OFFSET 0.000000 0.000000 0.000000
    CHANNELS 6 Xposition Yposition Zposition Zrotation Xrotation Yrotation
    JOINT Spine
    {
        OFFSET -0.000000 14.517291 0.000000
        CHANNELS 3 Zrotation Xrotation Yrotation
        JOINT Spine1
        {
            OFFSET -0.000000 37.558300 0.000000
            CHANNELS 3 Zrotation Xrotation Yrotation
            JOINT Neck
            {
                OFFSET -0.000000 37.404057 3.400369
                CHANNELS 3 Zrotation Xrotation Yrotation
                JOINT Head
                {
                    OFFSET -0.000000 24.785618 -3.540803
                    CHANNELS 3 Zrotation Xrotation Yrotation
                    End Site
                    {
                        OFFSET -0.000000 35.408028 0.000000
                    }
                }
            }
            JOINT LeftShoulder
            {
                OFFSET 6.992933 33.973492 -0.192664
                CHANNELS 3 Zrotation Xrotation Yrotation
                JOINT LeftArm
                {
                    OFFSET 21.527611 0.000000 0.000000
                    CHANNELS 3 Zrotation Xrotation Yrotation
                    JOINT LeftForeArm
                    {
                        OFFSET 56.353916 0.000000 0.000000
                        CHANNELS 3 Zrotation Xrotation Yrotation
                        JOINT LeftHand
                        {
                            OFFSET 47.774071 0.000000 0.000000
                            CHANNELS 3 Zrotation Xrotation Yrotation
                            End Site
                            {
                                OFFSET 26.556021 0.000000 0.000000
                            }
                        }
                    }
                }
            }
            JOINT RightShoulder
            {
                OFFSET -7.065357 33.973492 -0.192664
                CHANNELS 3 Zrotation Xrotation Yrotation
                JOINT RightArm
                {
                    OFFSET -21.527611 0.000000 0.000000
                    CHANNELS 3 Zrotation Xrotation Yrotation
                    JOINT RightForeArm
                    {
                        OFFSET -56.353916 0.000000 0.000000
                        CHANNELS 3 Zrotation Xrotation Yrotation
                        JOINT RightHand
                        {
                            OFFSET -47.774071 0.000000 0.000000
                            CHANNELS 3 Zrotation Xrotation Yrotation
                            End Site
                            {
                                OFFSET -26.556021 0.000000 0.000000
                            }
                        }
                    }
                }
            }
        }
    }
    JOINT LeftUpLeg
    {
        OFFSET 17.704014 0.000000 0.000000
        CHANNELS 3 Zrotation Xrotation Yrotation
        JOINT LeftLeg
        {
            OFFSET -0.000000 -81.181816 0.000000
            CHANNELS 3 Zrotation Xrotation Yrotation
            JOINT LeftFoot
            {
                OFFSET -0.000000 -62.821102 0.000000
                CHANNELS 3 Zrotation Xrotation Yrotation
                JOINT LeftToeBase
                {
                    OFFSET -0.000000 -11.507608 26.556021
                    CHANNELS 3 Zrotation Xrotation Yrotation
                    End Site
                    {
                        OFFSET -0.000000 0.000000 7.081605
                    }
                }
            }
        }
    }
    JOINT RightUpLeg
    {
        OFFSET -17.704014 0.000000 0.000000
        CHANNELS 3 Zrotation Xrotation Yrotation
        JOINT RightLeg
        {
            OFFSET -0.000000 -81.181816 0.000000
            CHANNELS 3 Zrotation Xrotation Yrotation
            JOINT RightFoot
            {
                OFFSET -0.000000 -62.821102 0.000000
                CHANNELS 3 Zrotation Xrotation Yrotation
                JOINT RightToeBase
                {
                    OFFSET -0.000000 -11.507608 26.556021
                    CHANNELS 3 Zrotation Xrotation Yrotation
                    End Site
                    {
                        OFFSET -0.000000 0.000000 7.081605
                    }
                }
            }
        }
    }
}
MOTION
Frames:    9
Frame Time:    0.008333
14.679784    154.456848    -131.574615    -2.193615    -4.138435    36.377899    0.819308    -0.978720    0.250265    -4.688258    3.076351    0.206950    7.089638    1.505986    -17.080729    11.137366    0.373466    -17.247494    6.819456    8.791985    -17.432928    -35.199665    21.653292    -47.712948    -7.421348    -8.389652    -117.710098    2.415506    -20.446196    -6.213016    -14.809545    -4.296144    -6.581642    18.944181    -21.894058    51.398575    -11.917297    -12.924377    45.815819    -0.290913    -8.027508    29.548635    4.623052    -11.022637    -12.365705    -16.451096    43.838608    -21.607388    20.438980    -20.929960    47.771133    0.000000    0.000000    0.000000    -16.782339    -23.813492    -11.348963    9.086535    17.495749    -19.724482    7.529291    20.672859    -11.308702    0.000000    0.000000    0.000000    
14.598960    154.358078    -131.349136    -2.180542    -4.074612    36.455399    0.828813    -1.046142    0.283596    -4.738570    3.115884    0.221101    7.052542    1.495068    -17.094215    11.210958    0.333979    -17.243567    6.800756    8.756320    -17.408983    -35.230339    21.627451    -47.714333    -7.444426    -8.337466    -117.710892    2.417144    -20.433743    -6.215484    -14.823896    -4.302535    -6.574533    18.967627    -21.920244    51.384399    -11.898757    -12.953461    45.814110    -0.275674    -8.061440    29.620674    4.590178    -11.073186    -12.478683    -16.429602    43.977436    -21.501274    20.470167    -21.127989    47.780621    0.000000    0.000000    0.000000    -16.713718    -23.837940    -11.200519    9.015493    17.654417    -19.826715    7.084116    20.184298    -10.891432    0.000000    0.000000    0.000000    
14.503631    154.258453    -131.095016    -2.174725    -4.020347    36.510754    0.823569    -1.115104    0.328379    -4.755296    3.124955    0.236564    7.073254    1.522970    -17.103100    11.170854    0.275051    -17.253603    6.753882    8.780941    -17.399296    -35.233303    21.608940    -47.719788    -7.458372    -8.351007    -117.711288    2.490792    -20.471800    -6.193717    -14.866559    -4.293239    -6.541711    19.018801    -21.938448    51.368965    -11.909374    -12.935113    45.813416    -0.279571    -8.039264    29.548073    4.608577    -11.105670    -12.555408    -16.441702    44.104645    -21.466091    20.502541    -21.330748    47.823986    0.000000    0.000000    0.000000    -16.656721    -23.844784    -10.884618    9.097581    17.768234    -19.626244    7.011025    19.613832    -11.175088    0.000000    0.000000    0.000000    
14.403769    154.165924    -130.861206    -2.164148    -3.950394    36.562767    0.799773    -1.178128    0.357808    -4.763671    3.150910    0.247641    7.013397    1.532533    -17.117708    11.247639    0.231552    -17.245565    6.712376    8.749218    -17.367819    -35.260330    21.616392    -47.696064    -7.467884    -8.347821    -117.712830    2.529654    -20.485661    -6.173084    -14.891292    -4.323999    -6.540916    19.085949    -21.955208    51.387489    -11.983687    -12.756844    45.480431    -0.231974    -7.859080    31.474758    4.620687    -11.160136    -12.633065    -16.495325    44.222778    -21.409134    20.549984    -21.473265    47.876095    0.000000    0.000000    0.000000    -16.614307    -23.873198    -10.526604    9.206017    17.884968    -19.325342    6.975966    19.005720    -11.659304    0.000000    0.000000    0.000000    
14.295506    154.072159    -130.629868    -2.144751    -3.884237    36.598755    0.771277    -1.203718    0.382237    -4.800342    3.147760    0.256653    6.976807    1.488726    -17.129675    11.336401    0.259649    -17.246647    6.692154    8.711073    -17.293951    -35.293266    21.652006    -47.691067    -7.474801    -8.339030    -117.714485    2.559644    -20.489765    -6.145395    -14.894850    -4.353752    -6.509827    19.124283    -21.927670    51.391800    -11.903819    -12.952697    45.827122    -0.341108    -8.073972    29.616209    4.629209    -11.214755    -12.657923    -16.513245    44.372841    -21.383286    20.584986    -21.625879    47.908951    0.000000    0.000000    0.000000    -16.551456    -23.946585    -10.140433    9.271563    18.081038    -19.048981    6.928710    18.405081    -12.098624    0.000000    0.000000    0.000000    
14.192179    153.986313    -130.391556    -2.131404    -3.809311    36.619595    0.749711    -1.266167    0.425682    -4.845404    3.168405    0.272991    6.946776    1.481897    -17.140245    11.414045    0.242938    -17.241955    6.679862    8.730416    -17.249540    -35.297688    21.636499    -47.709465    -7.488131    -8.324507    -117.716652    2.577432    -20.497829    -6.115094    -14.891354    -4.294140    -6.538049    19.198538    -21.934404    51.489998    -11.955491    -12.989551    45.801258    -0.296235    -8.080689    29.556093    4.633523    -11.268664    -12.673865    -16.509157    44.512539    -21.342710    20.568230    -21.816391    47.922272    0.000000    0.000000    0.000000    -16.472912    -24.024410    -9.711900    9.332376    18.243265    -18.889830    6.857367    17.836002    -12.453901    0.000000    0.000000    0.000000    
14.092381    153.905136    -130.156265    -2.123182    -3.739341    36.615841    0.683226    -1.329123    0.463202    -4.794912    3.185120    0.284925    6.924269    1.446772    -17.122822    11.420124    0.261049    -17.223766    6.624962    8.726008    -17.218843    -35.328259    21.686401    -47.689262    -7.448714    -8.415562    -117.708237    2.529226    -20.517349    -6.100386    -14.927341    -4.275446    -6.447378    19.207596    -21.952944    51.447742    -11.993733    -13.008865    45.796539    -0.243272    -8.071058    29.608360    4.648541    -11.312391    -12.708084    -16.538046    44.630493    -21.246820    20.572855    -21.978144    47.917625    0.000000    0.000000    0.000000    -16.374941    -24.104795    -9.333336    9.372954    18.394382    -18.765905    6.745704    17.315319    -12.734643    0.000000    0.000000    0.000000    
13.980703    153.828629    -129.923004    -2.111258    -3.669782    36.617882    0.635667    -1.368661    0.505372    -4.815983    3.188077    0.299786    6.952971    1.385925    -17.105896    11.422773    0.290714    -17.216364    6.603580    8.705904    -17.183077    -35.353176    21.685415    -47.671196    -7.475289    -8.370700    -117.703232    2.620622    -20.518854    -6.043094    -14.927356    -4.276999    -6.470726    19.255682    -21.889641    51.500076    -12.024795    -13.065873    45.805557    -0.288172    -8.126148    29.521221    4.676698    -11.360461    -12.725729    -16.582600    44.745556    -21.204008    20.581636    -22.113024    47.949726    0.000000    0.000000    0.000000    -16.273607    -24.194845    -9.008643    9.403866    18.560320    -18.841316    6.503610    16.845160    -12.775970    0.000000    0.000000    0.000000    
13.861039    153.756683    -129.667709    -2.103889    -3.630642    36.621742    0.579152    -1.411108    0.517739    -4.791901    3.213006    0.304272    6.874273    1.360782    -17.103292    11.567531    0.340918    -17.189915    6.582548    8.724380    -17.118734    -35.362999    21.697500    -47.677467    -7.466691    -8.402292    -117.687820    2.594250    -20.531216    -6.069131    -14.932889    -4.265224    -6.457180    19.338434    -21.892239    51.594624    -12.009347    -13.045275    45.777287    -0.297750    -8.117678    29.500601    4.745964    -11.382715    -12.723811    -16.646986    44.858418    -21.138618    20.590178    -22.254847    47.959152    0.000000    0.000000    0.000000    -16.128101    -24.248623    -8.703551    9.407345    18.701447    -18.933407    6.285713    16.385759    -12.804222    0.000000    0.000000    0.000000    
